{
  "accessors": [
    {
      "bufferView": 1,
      "componentType": 5126,
      "count": 34320,
      "max": [
        66.0614013671875,
        19.158300399780273,
        110.55840301513672
      ],
      "min": [
        -63.62670135498047,
        -92.33820343017578,
        17.863399505615234
      ],
      "type": "VEC3"
    },
    {
      "bufferView": 1,
      "byteOffset": 411840,
      "componentType": 5126,
      "count": 34320,
      "max": [
        0.9999805092811584,
        0.9999551177024841,
        0.9999803900718689
      ],
      "min": [
        -0.9999600052833557,
        -0.9997486472129822,
        -0.9999280571937561
      ],
      "type": "VEC3"
    },
    {
      "bufferView": 0,
      "componentType": 5125,
      "count": 181974,
      "type": "SCALAR"
    }
  ],
  "asset": {
    "extras": {
      "author": "FablabNDMC (https://sketchfab.com/FablabNDMC)",
      "license": "CC-BY-4.0 (http://creativecommons.org/licenses/by/4.0/)",
      "source": "https://sketchfab.com/3d-models/blood-vessel-09f09ebc66e14e2dabebbe9514a7a88a",
      "title": "Blood Vessel"
    },
    "generator": "Sketchfab-16.59.0",
    "version": "2.0"
  },
  "bufferViews": [
    {
      "buffer": 0,
      "byteLength": 727896,
      "name": "floatBufferViews",
      "target": 34963
    },
    {
      "buffer": 0,
      "byteLength": 823680,
      "byteOffset": 727896,
      "byteStride": 12,
      "name": "floatBufferViews",
      "target": 34962
    }
  ],
  "buffers": [
    {
      "byteLength": 1551576,
      "uri": "scene.bin"
    }
  ],
  "materials": [
    {
      "doubleSided": true,
      "name": "Scene_-_Root",
      "pbrMetallicRoughness": {
        "baseColorFactor": [
          0.8292445137509508,
          0.0024035702021291423,
          0.0024035702021291423,
          1.0
        ],
        "metallicFactor": 0.0,
        "roughnessFactor": 0.6
      }
    }
  ],
  "meshes": [
    {
      "name": "Object_0",
      "primitives": [
        {
          "attributes": {
            "NORMAL": 1,
            "POSITION": 0
          },
          "indices": 2,
          "material": 0,
          "mode": 4
        }
      ]
    }
  ],
  "nodes": [
    {
      "children": [
        1
      ],
      "matrix": [
        1.0,
        0.0,
        0.0,
        0.0,
        0.0,
        2.220446049250313e-16,
        -1.0,
        0.0,
        0.0,
        1.0,
        2.220446049250313e-16,
        0.0,
        0.0,
        0.0,
        0.0,
        1.0
      ],
      "name": "Sketchfab_model"
    },
    {
      "children": [
        2
      ],
      "name": "Blood Vessel.stl.cleaner.materialmerger.gles"
    },
    {
      "mesh": 0,
      "name": "Object_2"
    }
  ],
  "scene": 0,
  "scenes": [
    {
      "name": "Sketchfab_Scene",
      "nodes": [
        0
      ]
    }
  ]
}
